<?xml version="1.0" standalone="no"?>
<!DOCTYPE svg PUBLIC "-//W3C//DTD SVG 1.1//EN" "http://www.w3.org/Graphics/SVG/1.1/DTD/svg11.dtd" >
<!--
2013-9-30: Created.
-->
<svg>
<metadata>
Created by iconfont
</metadata>
<defs>

<font id="iconfont" horiz-adv-x="1024" >
  <font-face
    font-family="iconfont"
    font-weight="500"
    font-stretch="normal"
    units-per-em="1024"
    ascent="896"
    descent="-128"
  />
    <missing-glyph />
    
    <glyph glyph-name="jianpan" unicode="&#58884;" d="M890.578941 1.698944 125.128869 1.698944c-35.227736 0-63.771985 28.574802-63.771985 63.801095L61.356884 416.293497c0 35.256992 28.544249 63.801095 63.771985 63.801095l33.728531 1.779529c0 52.089355 15.864966 83.942831 47.594898 119.41881s71.079714 53.213969 118.08107 53.213969c22.297732 0 47.001356-3.778046 74.108825-11.304464 0 0 58.899825-19.579941 99.811236-19.579941 62.397629 0 104.963794 27.356045 127.605371 82.069157 10.619284 26.325575 21.424816 39.503712 32.385898 39.503712 15.770818 0 23.672089-7.369851 23.672089-22.047132 0-26.013467-14.052616-54.744835-42.159896-86.222757-37.695028-42.751686-84.134566-64.143902-139.285867-64.143902-42.816886 0-116.20732 20.080338-116.20732 20.080338-29.793757 7.213285-51.060978 10.80509-63.741285 10.80509-30.480424 0-56.619805-13.022595-78.387443-39.098483-21.767638-26.075889-32.635595-47.155996-32.635595-83.131349l680.878536-1.342578c35.227736 0 63.803709-28.544103 63.803709-63.801095l0-350.793458C954.381627 30.273746 925.806677 1.698944 890.578941 1.698944zM922.496146 416.293497c0 17.643845-14.30436 31.915897-31.917205 31.915897L125.128869 448.209394c-17.613868 0-31.886504-14.272052-31.886504-31.915897l0-350.793458c0-17.613146 14.272636-31.915897 31.886504-31.915897L890.578941 33.584142c17.613868 0 31.917205 14.303774 31.917205 31.915897L922.496146 416.293497zM794.764903 255.839085l-62.803898 0 0-61.769832-63.770962 0 0 61.769832-63.803709 0 0-61.769832-65.771607 0 0 61.769832-61.804087 0 0-61.769832-63.803709 0 0 61.769832-63.771985 0 0-61.769832-63.802686 0 0 61.769832-64.771796 0 0-61.769832-63.770962 0 0 62.769602 64.770773 0 0 63.801095-64.770773 0 0 62.770626 63.770962 0 0-61.770855 64.771796 0 0 61.770855 63.802686 0 0-61.770855 63.771985 0 0 61.770855 63.803709 0 0-61.770855 61.804087 0 0 61.770855 65.771607 0 0-61.770855 63.803709 0 0 61.770855 63.770962 0 0-61.770855 62.803898 0 0 61.770855 63.771985 0 0-62.770626-62.773197 0 0-63.801095 62.773197 0 0-62.769602-63.771985 0L794.764903 255.839085zM349.235969 320.638927l-64.770773 0 0-63.801095 64.770773 0L349.235969 320.638927zM475.811852 320.638927l-63.803709 0 0-63.801095 63.803709 0L475.811852 320.638927zM603.386523 320.638927l-63.771985 0 0-63.801095 63.771985 0L603.386523 320.638927zM730.961194 320.638927l-63.802686 0 0-63.801095 63.802686 0L730.961194 320.638927zM733.959604 97.384214 283.465385 97.384214l0 62.801325 450.494219 0L733.959604 97.384214z"  horiz-adv-x="1024" />

    
    <glyph glyph-name="down" unicode="&#58880;" d="M146.746 274.746l320-320c24.992-24.994 65.516-24.994 90.51 0l320 320c24.992 24.994 24.992 65.516 0 90.51-24.994 24.994-65.516 24.994-90.51 0L576 154.51 576 768c0 35.346-28.654 64-64 64s-64-28.654-64-64l0-613.49L237.254 365.256C224.758 377.75199999999995 208.378 384 192 384s-32.758-6.248-45.254-18.744C121.752 340.26199999999994 121.752 299.74 146.746 274.746z"  horiz-adv-x="1024" />

    
    <glyph glyph-name="left" unicode="&#58881;" d="M402.746 665.254l-320-320c-24.994-24.992-24.994-65.516 0-90.508l320-320c24.994-24.992 65.516-24.992 90.51 0 24.996 24.992 24.996 65.516 0 90.508L282.508 236 896 236c35.346 0 64 28.652 64 64 0 35.346-28.654 64-64 64L282.508 364l210.746 210.746C505.75 587.242 512 603.622 512 620s-6.248 32.758-18.744 45.254C468.26 690.248 427.74 690.248 402.746 665.254z"  horiz-adv-x="1024" />

    
    <glyph glyph-name="right" unicode="&#58882;" d="M621.254-65.254l320 320c24.994 24.992 24.994 65.516 0 90.51l-320 320c-24.994 24.992-65.516 24.992-90.51 0-24.994-24.994-24.994-65.516 0-90.51L741.49 364 128 364c-35.346 0-64-28.654-64-64s28.654-64 64-64l613.49 0L530.744 25.254C518.248 12.758 512-3.622 512-20s6.248-32.758 18.744-45.254C555.738-90.248 596.26-90.248 621.254-65.254z"  horiz-adv-x="1024" />

    
    <glyph glyph-name="up" unicode="&#58883;" d="M877.254 493.254l-320 320c-24.992 24.994-65.514 24.994-90.508 0l-320-320c-24.994-24.994-24.994-65.516 0-90.51 24.994-24.996 65.516-24.996 90.51 0L448 613.49 448 0c0-35.346 28.654-64 64-64 35.346 0 64 28.654 64 64L576 613.49l210.746-210.746C799.242 390.248 815.622 384 832 384s32.758 6.248 45.254 18.746C902.248 427.74 902.248 468.26 877.254 493.254z"  horiz-adv-x="1024" />

    
    <glyph glyph-name="luyin" unicode="&#58913;" d="M958.70846 143.750217c0-52.616358-42.657542-95.2739-95.2739-95.2739L160.564417 48.476317c-52.617381 0-95.274924 42.657542-95.274924 95.2739L65.289494 626.707764c0 52.617381 42.657542 95.274924 95.274924 95.274924l702.869119 0c52.617381 0 95.2739-42.658565 95.2739-95.274924L958.707436 143.750217zM903.729288 626.707764c0 22.254863-18.040888 40.294728-40.295751 40.294728L160.564417 667.002492c-22.255887 0-40.294728-18.039865-40.294728-40.294728l0-482.957547c0-22.254863 18.039865-40.294728 40.294728-40.294728l702.869119 0c22.254863 0 40.295751 18.039865 40.295751 40.294728L903.729288 626.707764zM780.024871 89.71044c-7.597025 0-13.745049 6.148024-13.745049 13.745049l0 35.731806c0 31.650861-26.38902 60.488653-54.671157 60.488653l-400.481114 0c-28.282137 0-53.40942-28.838815-53.40942-60.488653l0-35.731806c0-7.597025-6.161327-13.745049-13.745049-13.745049-7.597025 0-13.745049 6.148024-13.745049 13.745049l0 35.731806c0 46.864354 37.462217 87.97875 80.898495 87.97875l400.481114 0c43.423999 0 82.161255-41.114396 82.161255-87.97875l0-35.731806C793.76992 95.858464 787.608593 89.71044 780.024871 89.71044zM675.448094 295.890266 347.288123 295.890266c-80.053244 0-145.180544 61.086264-145.180544 136.173402 0 7.598049 6.147 13.746072 13.745049 13.746072 7.583722 0 13.745049-6.148024 13.745049-13.746072 0-60.938907 51.691289-108.683305 117.690446-108.683305l328.159972 0c67.086931 0 118.321826 44.64378 118.321826 103.852276l0 11.355629c0 63.10013-55.623855 118.455879-118.321826 118.455879L347.288123 557.044148c-28.456099 0-53.945633-13.959943-70.308299-25.678846-6.187933-4.402263-14.778588-2.965541-19.180851 3.181459-4.41659 6.17463-2.993171 14.765285 3.181459 19.181875 28.173666 20.146852 58.013275 30.80561 86.307691 30.80561l328.159972 0c77.341482 0 145.8109-68.201312 145.8109-145.945977l0-11.355629C821.260018 352.360396 758.212076 295.890266 675.448094 295.890266zM222.376205 463.728856c-1.489934 0-3.006474 0.2415-4.496407 0.751107-7.167237 2.483564-10.980076 10.308787-8.496511 17.49035 2.053776 5.919826 4.53734 11.758812 7.369851 17.342993 3.449565 6.765077 11.704576 9.462512 18.49626 5.999644 6.751774-3.435239 9.450233-11.717879 5.999644-18.482957-2.267647-4.455475-4.241604-9.113565-5.878894-13.852496C233.397213 467.299171 228.067834 463.728856 222.376205 463.728856zM367.905696 347.03204c-45.945425 0-83.327824 37.381375-83.327824 83.327824 0 45.945425 37.382399 83.327824 83.327824 83.327824 45.946448 0 83.328847-37.382399 83.328847-83.327824C451.234543 384.413416 413.852144 347.03204 367.905696 347.03204zM367.905696 486.198613c-30.791284 0-55.837726-25.047466-55.837726-55.838749s25.047466-55.838749 55.837726-55.838749c30.792307 0 55.838749 25.047466 55.838749 55.838749S398.698003 486.198613 367.905696 486.198613zM670.293701 347.03204c-45.945425 0-83.328847 37.381375-83.328847 83.327824 0 45.945425 37.382399 83.327824 83.328847 83.327824s83.327824-37.382399 83.327824-83.327824C753.621525 384.413416 716.240149 347.03204 670.293701 347.03204zM670.293701 486.198613c-30.792307 0-55.838749-25.047466-55.838749-55.838749s25.047466-55.838749 55.838749-55.838749 55.838749 25.047466 55.838749 55.838749S701.086008 486.198613 670.293701 486.198613z"  horiz-adv-x="1024" />

    
    <glyph glyph-name="edit" unicode="&#58909;" d="M427.09333333 90.45333332999996c-25.70666667-29.44-37.01333333-36.48-72.96-49.70666666-55.36-20.69333333-156.8-58.77333333-222.82666666-83.52-12.48-4.90666667-59.62666667-2.45333333-39.89333334 43.84 22.4 64.42666667 55.25333333 159.57333333 74.02666667 213.86666666 13.65333333 38.29333333 19.09333333 48.21333333 46.61333333 73.92l284.26666667 284.26666667L697.6 371.84000000000003C697.6 371.84000000000003 506.24 172.69333332999997 427.09333333 90.45333332999996zM740.8 415.04L539.62666667 616.2133333300001 582.72 659.41333333 784 458.13333333ZM913.38666667 587.52l-86.18666667-86.29333333L625.92 702.50666667l86.29333333 86.18666666c31.78666667 31.78666667 83.2 31.78666667 114.98666667 0l86.29333333-86.18666666C945.17333333 670.82666667 945.17333333 619.30666667 913.38666667 587.52z"  horiz-adv-x="1024" />

    
    <glyph glyph-name="ok" unicode="&#58941;" d="M938.37653333 682.5904355499999c-14.63637333 13.72615111-37.71960889 13.07079111-51.44689778-1.6019911L401.38069333 164.01749332999998l-265.23875555 261.34300445c-14.34510222 14.12664889-37.39192889 13.98101333-51.51857778-0.36408889-14.12664889-14.30755555-13.94460445-37.39079111 0.40049778-51.48216889l291.81724444-287.48458667c0.10922667-0.10922667 0.25486222-0.14563555 0.36295111-0.25486222 0.11036445-0.10922667 0.14677333-0.25486222 0.256-0.36408889 2.29376-2.18453333 5.06083555-3.42243555 7.71868445-4.87879111 1.30958222-0.76458667 2.43939555-1.89326222 3.82179555-2.43939556 4.29624889-1.67480889 8.84736-2.54862222 13.36206222-2.54862222 4.76956445 0 9.53912889 0.94663111 13.98101334 2.83989334 1.49390222 0.61895111 2.65784889 1.89326222 4.04138666 2.69425778 2.73066667 1.60199111 5.57056 2.94912 7.9007289 5.31569777 0.10922667 0.10922667 0.14563555 0.29127111 0.25486222 0.40049778 0.07281778 0.11036445 0.21845333 0.14677333 0.32768 0.256l511.07271111 544.09443555C953.77635555 645.74464 953.01176889 668.79146667 938.37653333 682.5904355499999z"  horiz-adv-x="1024" />

    
    <glyph glyph-name="pintu" unicode="&#58910;" d="M809.19360283 402.57510615l-55.72351934 0L753.47008349 551.1714580099999c0 41.04996857-33.24865781 74.29862549-74.29862548 74.29862548L530.57420703 625.47008349l0 55.72351934c0 51.2661419-41.60669062 92.87283252-92.87283252 92.87283253S344.82854199 732.45974473 344.82854199 681.19360283l0-55.72351934L196.23219013 625.47008349c-41.04996857 0-73.92717773-33.24865781-73.92717774-74.29862548l-0.18617344-141.16648887 55.53824503 0c55.35207158 0 100.30269463-44.95062305 100.30269464-100.30269463s-44.95062305-100.30269463-100.30269464-100.30269462L122.11973895 209.39957901000002l-0.18617342-141.16648888c0-41.04996857 33.24865781-74.29862549 74.29862549-74.29862548l141.16648886 0 0 55.72351933c0 55.35207158 44.95062305 100.30269463 100.30269463 100.30269464s100.30269463-44.95062305 100.30269463-100.30269464l0-55.72351933 141.16648887 0c41.04996857 0 74.29862549 33.24865781 74.29862548 74.29862548L753.46918349 216.82854198999996l55.72351934 0c51.2661419 0 92.87283252 41.60669062 92.87283252 92.87283252S860.45884473 402.57510615 809.19360283 402.57510615z"  horiz-adv-x="1024" />

    
    <glyph glyph-name="zan" unicode="&#58958;" d="M693.43326208 776.25216797c-37.32613461 0-75.12613774-8.54359723-109.31333347-24.7075055-26.49353443-12.52665003-50.98215197-29.68835982-71.85563307-50.250975-20.87231715 20.56261518-45.36093469 37.72548779-71.85563307 50.25213895-34.18603179 16.16274432-71.98486983 24.70634155-109.31216953 24.70634155-65.95615061 0-127.14800583-24.93221433-172.30402446-70.20582685-45.13971883-45.25614877-69.9985829-106.57607566-69.9985829-172.66262813 0-160.51088043 136.31915805-285.20804466 342.66251264-473.96122965l8.33402425-7.62264007 72.47271026-65.15278734 14.19741412 12.76300288 58.14373034 52.2663697 8.4492891 7.72859108c206.35616256 188.76017095 342.68230542 313.46315719 342.68230542 473.97869454 0 66.08655133-24.85886407 127.40531427-69.99858289 172.66262813C820.58126791 751.31878855 759.38941269 776.25216797 693.43326208 776.25216797L693.43326208 776.25216797z"  horiz-adv-x="1024" />

    
    <glyph glyph-name="pinglun" unicode="&#58885;" d="M511.999488 48.117137c-28.734592 0-56.729303 2.604314-83.969807 7.099698L231.232673-64.185602 231.232673 134.59265C128.618486 206.644663 62.772174 317.110567 62.772174 441.174164c0 217.07906 201.129864 393.058051 449.228338 393.058051 248.084146 0 449.228338-175.980014 449.228338-393.058051C961.227826 224.082824 760.083635 48.117137 511.999488 48.117137zM511.999488 778.08238c-217.086932 0-393.074156-150.851707-393.074156-336.907193 0-114.166179 66.421434-214.898395 167.761552-275.820929l-1.768346-130.234133 132.171551 79.455633c30.4487-6.497994 62.117231-10.308787 94.910422-10.308787 217.101258 0 393.073132 150.825101 393.073132 336.907193C905.073644 627.230674 729.10177 778.08238 511.999488 778.08238zM736.614169 385.023306c-31.011542 0-56.154182 25.128307-56.154182 56.150858 0 31.010271 25.14264 56.151881 56.154182 56.151881s56.154182-25.14161 56.154182-56.151881C792.768351 410.151613 767.624687 385.023306 736.614169 385.023306zM511.999488 385.023306c-31.010518 0-56.153158 25.128307-56.153158 56.150858 0 31.010271 25.14264 56.151881 56.153158 56.151881 31.011542 0 56.154182-25.14161 56.154182-56.151881C568.15367 410.151613 543.01103 385.023306 511.999488 385.023306zM287.385831 385.023306c-31.010518 0-56.153158 25.128307-56.153158 56.150858 0 31.010271 25.14264 56.151881 56.153158 56.151881s56.153158-25.14161 56.153158-56.151881C343.53899 410.151613 318.39635 385.023306 287.385831 385.023306z"  horiz-adv-x="1024" />

    
    <glyph glyph-name="close" unicode="&#58960;" d="M888.22937221 62.60364750999997l0.02732244 0.02732244L189.78646699 761.0540032c-7.02426985 7.02923723-16.73107502 11.37718067-27.45376708 11.37718067-21.43544813 0-38.81231853-17.3768704-38.81231852-38.81231853 0-10.7214493 4.34794345-20.42825569 11.37593912-27.45252553L832.53446429 8.57663077999996c7.08636521-7.6191474 17.1930674-12.39058326 28.41873491-12.39058326 21.43544813 0 38.81231853 17.3768704 38.81231853 38.81231854C899.76551773 45.80054114999996 895.35051033 55.56695859000001 888.22937221 62.60364750999997zM833.3491605 760.89503835l-0.02732244 0.02732245L134.89880359 62.45213312999999c-7.02923723-7.02426985-11.37718067-16.73107502-11.37718067-27.45376707 0-21.43544813 17.3768704-38.81231853 38.81231853-38.81231854 10.7214493 0 20.42825569 4.34794345 27.45252554 11.37593914l697.59095057 697.63814376c7.6191474 7.08636521 12.39058326 17.1930674 12.39058326 28.41873492 0 21.43544813-17.3768704 38.81231853-38.81231854 38.81231853C850.15226687 772.43118387 840.38460667 768.01617769 833.3491605 760.89503835z"  horiz-adv-x="1024" />

    
    <glyph glyph-name="shezhi" unicode="&#58887;" d="M512 198.4c102.4 0 182.4 83.2 182.4 185.6 0 102.4-83.2 185.6-182.4 185.6-102.4 0-182.4-83.2-182.4-185.6 0-102.4 83.2-185.6 182.4-185.6z m0 51.2c-73.6 0-134.4 60.8-134.4 134.4 0 73.6 60.8 134.4 134.4 134.4 73.6 0 134.4-60.8 134.4-134.4 0-73.6-60.8-134.4-134.4-134.4zM249.015 52.821c35.2-28.8 73.6-51.2 112-67.2 41.6 38.4 96 60.8 150.4 60.8 57.6 0 108.8-22.4 150.4-60.8 41.6 16 80 38.4 112 67.2-12.8 54.4-3.2 112 22.4 163.2 28.8 48 73.6 86.4 128 102.4 3.2 22.4 6.4 44.8 6.4 67.2 0 22.4-3.2 44.8-6.4 67.2-54.4 16-99.2 54.4-128 102.4-28.8 48-35.2 108.8-22.4 163.2-35.2 28.8-73.6 51.2-112 67.2-41.6-38.4-92.8-60.8-150.4-60.8-54.4 0-108.8 22.4-150.4 60.8-41.6-16-80-38.4-112-67.2 12.8-54.4 3.2-112-22.4-163.2-28.8-48-73.6-86.4-128-102.4-3.2-22.4-6.4-44.8-6.4-67.2 0-22.4 3.2-44.8 6.4-67.2 54.4-16 99.2-54.4 128-102.4 25.6-51.2 35.2-108.8 22.4-163.2m112-115.2c-54.4 19.2-105.6 48-150.4 89.6-6.4 6.4-9.6 16-6.4 22.4 16 48 9.6 99.2-16 140.8-25.6 44.8-64 73.6-112 83.2-9.6 3.2-16 9.6-16 19.2-6.4 28.8-9.6 60.8-9.6 89.6 0 28.8 3.2 57.6 9.6 89.6 3.2 9.6 9.6 16 16 19.2 48 12.8 89.6 41.6 112 83.2 25.6 44.8 28.8 92.8 16 140.8-3.2 9.6 0 19.2 6.4 22.4 44.8 38.4 96 67.2 150.4 89.6 9.6 3.2 16 0 22.4-6.4 35.2-35.2 80-57.6 128-57.6s96 19.2 128 57.6c6.4 6.4 16 9.6 22.4 6.4 54.4-19.2 105.6-48 150.4-89.6 6.4-6.4 9.6-16 6.4-22.4-16-48-9.6-99.2 16-140.8 25.6-44.8 64-73.6 112-83.2 9.6-3.2 16-9.6 16-19.2 6.4-28.8 9.6-60.8 9.6-89.6 0-28.8-3.2-57.6-9.6-89.6-3.2-9.6-9.6-16-16-19.2-48-12.8-89.6-41.6-112-83.2-25.6-44.8-28.8-92.8-16-140.8 3.2-9.6 0-19.2-6.4-22.4-44.8-38.4-96-67.2-150.4-89.6-9.6-3.2-16 0-22.4 6.4-35.2 35.2-80 57.6-128 57.6s-96-19.2-128-57.6c-3.2-3.2-9.6-6.4-16-6.4h-6.4z"  horiz-adv-x="1024" />

    
    <glyph glyph-name="delete" unicode="&#58886;" d="M819.66201788 772.43118387H666.89284566c0 42.87089627-34.75374202 77.62463827-77.62463705 77.62463827H434.01893205c-42.87089627 0-77.62463827-34.75374202-77.62463706-77.62463827H203.62388124c-44.23948576 0-80.10349985-35.86401287-80.10349985-80.10349985v-72.66691391c0-44.23948576 35.86401287-80.10349985 80.10349985-80.10349985h-2.47886158v-540.89236115c0-44.23948576 35.86401287-80.10349985 80.10349863-80.10349986h460.79010407c44.23948576 0 80.10349985 35.86401287 80.10349985 80.10349986V539.55851181h-2.47886279c44.23948576 0 80.10349985 35.86401287 80.10349985 80.10349985v72.66691511c-0.00124155 44.23948576-35.86401287 80.1022571-80.10474139 80.1022571z m-75.14577548-742.09869095c-0.12294917-3.79032432-2.11622298-33.75524159-33.93531996-34.14520385H312.85028091c-33.96760978 0.41728349-33.94401317 34.53889073-33.94401319 34.53889074l-0.13661101-0.03849876V539.55851181h465.74658569v-509.22601889z m38.81231853 586.85065716H239.95733819c-21.43544813 0-38.81231853 17.3768704-38.81231853 38.81231853 0 21.43544813 17.3768704 38.81231853 38.81231853 38.81231974H783.32980246c21.43544813 0 38.81231853-17.3768704 38.81231975-38.81231974-0.00124155-21.43544813-17.37811316-38.81231853-38.81356128-38.81231853zM434.01893205 73.81068579999999c21.43544813 0 38.81231853 17.3768704 38.81231975 38.81231853V423.12155621c0 21.43544813-17.3768704 38.81231853-38.81231975 38.81231853-21.43544813 0-38.81231853-17.3768704-38.81231852-38.81231853v-310.49855188c0-21.43544813 17.3768704-38.81231853 38.81231852-38.81231853zM589.26820861 73.81068579999999c21.43544813 0 38.81231853 17.3768704 38.81231853 38.81231853V423.12155621c0 21.43544813-17.3768704 38.81231853-38.81231853 38.81231853-21.43544813 0-38.81231853-17.3768704-38.81231975-38.81231853v-310.49855188c0-21.43544813 17.3768704-38.81231853 38.81231975-38.81231853z"  horiz-adv-x="1024" />

    
    <glyph glyph-name="record" unicode="&#58901;" d="M512-67.25256890000003C262.44248614-67.25256890000003 59.41190231 135.77801494000005 59.41190231 385.3355288S262.44248614 837.92362647 512 837.92362647s452.58809769-203.03058505 452.58809769-452.58809767-203.03058505-452.58809769-452.58809769-452.5880977z m0 817.49074588C310.79103541 750.2381769799999 147.09516 586.54449338 147.09516 385.3355288s163.69587541-364.90484 364.90484-364.90484001S876.90484 184.12656419999996 876.90484 385.3355288s-163.69587541 364.90264819-364.90484 364.90264818zM512 385.3355288m-243.32104135 0a243.32104135 243.32104135 0 1 1 486.6420827 0 243.32104135 243.32104135 0 1 1-486.6420827 0Z"  horiz-adv-x="1024" />

    
    <glyph glyph-name="shouye" unicode="&#59262;" d="M963.12888889 367.84355555l-35.04355556-41.75644444c-2.95822222-3.41333333-7.05422222-5.46133333-11.83288888-6.144h-1.70666667c-4.89244445 0-8.87466667 1.25155555-11.83288889 3.86844444L512 649.67111111 121.28711111 323.81155555c-4.55111111-2.95822222-8.98844445-4.32355555-13.53955556-3.86844444-4.89244445 0.68266667-8.87466667 2.84444445-11.83288888 6.144l-35.04355556 41.75644444c-2.95822222 3.75466667-4.32355555 8.192-3.86844444 13.312 0.34133333 5.12 2.50311111 9.10222222 6.144 12.06044445l405.95911111 338.14755555c11.94666667 9.89866667 26.28266667 14.67733333 42.89422222 14.67733334 16.49777778 0 30.83377778-4.89244445 42.89422222-14.67733334l137.78488889-115.1431111v110.13688888c0 5.23377778 1.70666667 9.67111111 5.12 12.97066667 3.41333333 3.41333333 7.73688889 5.12 12.97066667 5.12H819.2c5.23377778 0 9.67111111-1.70666667 12.97066667-5.12 3.41333333-3.41333333 5.12-7.73688889 5.12-12.97066667v-230.4l123.79022222-102.74133333c3.75466667-2.95822222 5.80266667-7.05422222 6.144-12.06044445 0.22755555-5.12-1.13777778-9.55733333-4.096-13.312z m-125.83822222-38.912v-271.01866666c0-9.78488889-3.52711111-18.31822222-10.69511112-25.37244444s-15.70133333-10.69511111-25.37244444-10.69511112H584.36266667V238.47822222000002H439.63733333v-216.74666667H223.00444445c-9.78488889 0-18.31822222 3.52711111-25.37244445 10.69511112-7.168 7.168-10.69511111 15.58755555-10.69511111 25.37244444V328.93155555c0 0.34133333 0.11377778 0.91022222 0.22755556 1.70666667 0.22755555 0.68266667 0.22755555 1.25155555 0.22755555 1.70666667L512 599.83644445l324.72177778-267.71911112c0.34133333-0.56888889 0.56888889-1.70666667 0.56888889-3.18577778z"  horiz-adv-x="1024" />

    
    <glyph glyph-name="stop" unicode="&#59166;" d="M238.93333333 725.33333333h546.13333334c37.75146667 0 68.26666667-30.5152 68.26666666-68.26666666v-546.13333334c0-37.75146667-30.5152-68.26666667-68.26666666-68.26666666H238.93333333c-37.75146667 0-68.26666667 30.5152-68.26666666 68.26666666V657.06666667c0 37.75146667 30.5152 68.26666667 68.26666666 68.26666666z"  horiz-adv-x="1024" />

    
    <glyph glyph-name="danger" unicode="&#59237;" d="M465.63934815 268.21973333000005c7.76722963-23.18032592 23.18032592-38.59342222 46.36065185-38.59342222s38.59342222 15.4130963 46.36065185 38.59342222l30.8261926 424.64900742c0 46.36065185-38.59342222 77.18684445-77.18684445 77.18684443-46.36065185 0-77.18684445-38.59342222-77.18684445-84.95407407l30.8261926-416.88177778z m46.36065185-115.90162963c-46.36065185 0-77.18684445-30.82619259-77.18684445-77.18684445s30.82619259-77.18684445 77.18684445-77.18684443 77.18684445 30.82619259 77.18684445 77.18684443-30.82619259 77.18684445-77.18684445 77.18684445z"  horiz-adv-x="1024" />

    
    <glyph glyph-name="celebration_piano" unicode="&#61221;" d="M912-128H112c-44.112 0-80 35.888-80 80V144a16 16 0 0 0 16 16h928a16 16 0 0 0 16-16v-192c0-44.112-35.888-80-80-80zM64 128v-176c0-26.464 21.536-48 48-48h800c26.464 0 48 21.536 48 48V128H64zM1008 128H16a16 16 0 0 0-16 16V624C0 773.984 122.016 896 272 896s272-122.016 272-272a109.088 109.088 0 0 1 80.896-105.28l173.44-46.24C931.2 437.008 1024 316.24 1024 178.72V144a16 16 0 0 0-16-16zM32 160h960v18.72c0 123.04-83.04 231.12-201.92 262.848l-173.44 46.24A141.104 141.104 0 0 0 512 624c0 132.336-107.664 240-240 240S32 756.336 32 624v-464zM129.056 736.064a16 16 0 0 0-11.904 26.688c2.528 2.832 5.152 5.568 7.84 8.256a16 16 0 1 0 22.624-22.624c-2.288-2.272-4.48-4.624-6.64-7.008a15.968 15.968 0 0 0-11.92-5.312zM80 296a16 16 0 0 0-16 16V624c0 28.016 5.52 55.232 16.368 80.896a16 16 0 1 0 29.472-12.48A174.544 174.544 0 0 1 96 624v-312a16 16 0 0 0-16-16zM240-16H144a16 16 0 0 0-16 16v144a16 16 0 0 0 16 16h96a16 16 0 0 0 16-16v-144a16 16 0 0 0-16-16z m-80 32h64v112h-64v-112zM400-16h-96a16 16 0 0 0-16 16v144a16 16 0 0 0 16 16h96a16 16 0 0 0 16-16v-144a16 16 0 0 0-16-16z m-80 32h64v112h-64v-112zM560-16h-96a16 16 0 0 0-16 16v144a16 16 0 0 0 16 16h96a16 16 0 0 0 16-16v-144a16 16 0 0 0-16-16z m-80 32h64v112h-64v-112zM720-16h-96a16 16 0 0 0-16 16v144a16 16 0 0 0 16 16h96a16 16 0 0 0 16-16v-144a16 16 0 0 0-16-16z m-80 32h64v112h-64v-112zM192-128a16 16 0 0 0-16 16v112a16 16 0 1 0 32 0v-112a16 16 0 0 0-16-16zM352-128a16 16 0 0 0-16 16v112a16 16 0 1 0 32 0v-112a16 16 0 0 0-16-16zM512-128a16 16 0 0 0-16 16v112a16 16 0 1 0 32 0v-112a16 16 0 0 0-16-16zM672-128a16 16 0 0 0-16 16v112a16 16 0 1 0 32 0v-112a16 16 0 0 0-16-16zM880-16h-96a16 16 0 0 0-16 16v144a16 16 0 0 0 16 16h96a16 16 0 0 0 16-16v-144a16 16 0 0 0-16-16z m-80 32h64v112h-64v-112zM832-128a16 16 0 0 0-16 16v112a16 16 0 1 0 32 0v-112a16 16 0 0 0-16-16zM352 192c-4.16 0-8.32 1.76-11.36 4.64A16.8 16.8 0 0 0 336 208c0 4.32 1.76 8.32 4.64 11.36 5.92 5.92 16.64 5.92 22.72 0 2.88-3.04 4.64-7.2 4.64-11.36s-1.76-8.32-4.64-11.36c-3.04-2.88-7.2-4.64-11.36-4.64zM480 192c-4.16 0-8.32 1.76-11.36 4.64-2.88 3.04-4.64 7.04-4.64 11.36 0 4.32 1.76 8.32 4.64 11.36 5.92 5.92 16.64 5.92 22.72 0 2.88-3.04 4.64-7.2 4.64-11.36s-1.76-8.32-4.64-11.36c-3.04-2.88-7.2-4.64-11.36-4.64zM544 192c-4.16 0-8.32 1.76-11.36 4.64-2.88 3.04-4.64 7.2-4.64 11.36s1.76 8.32 4.64 11.36c5.92 5.92 16.64 5.92 22.72 0 2.88-3.04 4.64-7.2 4.64-11.36s-1.76-8.32-4.64-11.36c-3.04-2.88-7.2-4.64-11.36-4.64zM416 192c-4.16 0-8.32 1.76-11.36 4.64-2.88 3.04-4.64 7.2-4.64 11.36s1.76 8.32 4.64 11.36c6.08 5.92 16.64 5.92 22.72 0 2.88-3.04 4.64-7.04 4.64-11.36 0-4.16-1.76-8.32-4.64-11.36-3.04-2.88-7.2-4.64-11.36-4.64zM672 192c-4.16 0-8.32 1.76-11.36 4.64-2.88 3.04-4.64 7.2-4.64 11.36s1.76 8.32 4.64 11.36c5.92 5.92 16.64 5.92 22.72 0 2.88-3.04 4.64-7.2 4.64-11.36s-1.76-8.32-4.64-11.36c-3.04-2.88-7.2-4.64-11.36-4.64zM608 192c-4.16 0-8.32 1.76-11.36 4.64-2.88 3.04-4.64 7.04-4.64 11.36 0 4.32 1.76 8.32 4.64 11.36 5.92 5.92 16.8 5.92 22.72 0 2.88-3.04 4.64-7.2 4.64-11.36s-1.76-8.32-4.64-11.36c-3.04-2.88-7.2-4.64-11.36-4.64zM352 256a16.128 16.128 0 0 0-16 16c0 4.16 1.76 8.32 4.64 11.36 6.08 5.92 16.8 5.92 22.72 0 2.88-3.04 4.64-7.2 4.64-11.36s-1.76-8.32-4.64-11.36c-3.04-2.88-7.2-4.64-11.36-4.64zM480 256a16.128 16.128 0 0 0-16 16c0 4.16 1.76 8.32 4.64 11.36 5.92 5.92 16.8 5.92 22.72 0 2.88-3.04 4.64-7.2 4.64-11.36s-1.76-8.32-4.64-11.36c-3.04-2.88-7.2-4.64-11.36-4.64zM544 256a16.128 16.128 0 0 0-16 16c0 4.16 1.76 8.32 4.64 11.36 6.08 5.92 16.8 5.92 22.72 0 2.88-3.04 4.64-7.2 4.64-11.36s-1.76-8.32-4.64-11.36c-3.04-2.88-7.2-4.64-11.36-4.64zM416 256a16.128 16.128 0 0 0-16 16c0 4.16 1.76 8.32 4.64 11.36 5.92 5.92 16.8 5.92 22.72 0 2.88-3.04 4.64-7.2 4.64-11.36s-1.76-8.32-4.64-11.36c-3.04-2.88-7.04-4.64-11.36-4.64zM672 256a16 16 0 0 0-11.36 4.8 15.84 15.84 0 0 0-4.64 11.2c0 4.32 1.76 8.32 4.64 11.36 5.92 5.92 16.64 5.92 22.72 0 2.88-3.04 4.64-7.2 4.64-11.36s-1.76-8.32-4.64-11.36c-3.04-2.88-7.2-4.64-11.36-4.64zM608 256a16 16 0 0 0-11.36 4.8 15.84 15.84 0 0 0-4.64 11.2c0 4.16 1.76 8.32 4.64 11.36 5.92 5.92 16.64 5.92 22.72 0 2.88-3.04 4.64-7.2 4.64-11.36s-1.76-8.32-4.64-11.36c-3.04-2.88-7.2-4.64-11.36-4.64z"  horiz-adv-x="1024" />

    
    <glyph glyph-name="pause" unicode="&#59160;" d="M601.62188061 3.1070082899999534c0-22.40547043 20.16492317-44.81093973 44.81093973-44.81093974h89.6218806c24.64601657 0 44.81093973 24.64601657 44.81093973 44.81093974V764.8929917099999c0 22.40547043-20.16492317 44.81093973-44.81093973 44.81093974h-89.6218806c-24.64601657 0-44.81093973-24.64601657-44.81093973-44.81093974v-761.78598342z m-358.48752128 0c0-22.40547043 20.16492317-44.81093973 44.81093973-44.81093974h89.6218806c24.64601657 0 44.81093973 24.64601657 44.81093973 44.81093974V764.8929917099999c0 22.40547043-20.16492317 44.81093973-44.81093973 44.81093974h-89.6218806c-24.64601657 0-44.81093973-24.64601657-44.81093973-44.81093974v-761.78598342z"  horiz-adv-x="1024" />

    
    <glyph glyph-name="play" unicode="&#61222;" d="M835.34960938 425.77734375L228.2890625 776.19726563c-13.09570313 7.55859375-29.1796875 7.55859375-42.27539063-1e-8-13.09570313-7.55859375-21.18164063-21.53320313-21.09375-36.65039062v-700.92773438c0-15.1171875 8.0859375-29.09179688 21.09375-36.65039062 13.09570313-7.55859375 29.1796875-7.55859375 42.27539063 0l607.06054688 350.5078125c13.09570313 7.55859375 21.18164063 21.53320313 21.18164062 36.65039062 0 15.1171875-8.0859375 29.09179688-21.18164062 36.65039063z m-1e-8 0"  horiz-adv-x="1024" />

    
    <glyph glyph-name="info" unicode="&#62402;" d="M558.36065185 499.78026667c-7.76722963 23.18032592-23.18032592 38.59342222-46.36065185 38.59342222s-38.59342222-15.4130963-46.36065185-38.59342222l-30.8261926-424.64900742c0-46.36065185 38.59342222-77.18684445 77.18684445-77.18684444 46.36065185 0 77.18684445 38.59342222 77.18684445 84.95407408l-30.8261926 416.88177778z m-46.36065185 115.90162963c46.36065185 0 77.18684445 30.82619259 77.18684445 77.18684445s-30.82619259 77.18684445-77.18684445 77.18684444-77.18684445-30.82619259-77.18684445-77.18684444 30.82619259-77.18684445 77.18684445-77.18684445z"  horiz-adv-x="1024" />

    


  </font>
</defs>
</svg>
